<mxfile host="app.diagrams.net" modified="2024-06-27T10:36:29.156Z" agent="Mozilla/5.0 (Windows NT 10.0; Win64; x64; rv:127.0) Gecko/20100101 Firefox/127.0" etag="DAvWJd8ICJ2GekKmylDl" border="50" scale="3" compressed="false" locked="false" version="24.4.4" type="github">
  <diagram name="Blank" id="YmL12bMKpDGza6XwsDPr">
    <mxGraphModel dx="2234" dy="394" grid="0" gridSize="10" guides="1" tooltips="1" connect="1" arrows="1" fold="1" page="0" pageScale="1" pageWidth="827" pageHeight="1169" background="none" math="1" shadow="0">
      <root>
        <mxCell id="X5NqExCQtvZxIxQ7pmgY-0" />
        <mxCell id="1" parent="X5NqExCQtvZxIxQ7pmgY-0" />
        <object label="Subnet&lt;br&gt;%subnet%.x" placeholders="1" subnet="192.168.200.00" id="Gr0Zq-AI6Quabplr0KPa-98">
          <mxCell style="ellipse;whiteSpace=wrap;html=1;strokeWidth=2;fillColor=#EDF5FF;fontSize=15;strokeColor=none;container=1;verticalAlign=top;spacingBottom=0;spacingTop=4;fontStyle=1;fontColor=#7EA6E0;metaEdit=1;points=[[0,0,0,0,0],[0,0.5,0,0,0],[0,1,0,0,0],[0.5,0,0,0,0],[0.5,1,0,0,0],[1,0,0,0,0],[1,0.5,0,0,0],[1,1,0,0,0]];" parent="1" vertex="1">
            <mxGeometry x="-815" y="181" width="744" height="514" as="geometry">
              <mxRectangle x="-576" y="218" width="250" height="60" as="alternateBounds" />
            </mxGeometry>
          </mxCell>
        </object>
        <mxCell id="3lNWAQXR-T9nAfW_impY-9" style="edgeStyle=orthogonalEdgeStyle;curved=1;rounded=0;sketch=1;hachureGap=4;jiggle=2;curveFitting=1;orthogonalLoop=1;jettySize=auto;html=1;exitX=0.5;exitY=1;exitDx=0;exitDy=0;fontFamily=Helvetica;" edge="1" parent="Gr0Zq-AI6Quabplr0KPa-98" source="Gr0Zq-AI6Quabplr0KPa-104" target="Gr0Zq-AI6Quabplr0KPa-105">
          <mxGeometry relative="1" as="geometry" />
        </mxCell>
        <object label="Server" placeholders="1" id="Gr0Zq-AI6Quabplr0KPa-104">
          <mxCell style="image;html=1;image=img/lib/clip_art/computers/Mainframe_128x128.png;strokeColor=none;strokeWidth=2;fillColor=#EDF5FF;fontSize=12;fontColor=#0A3DA3;labelBackgroundColor=#EDF5FF;fontStyle=1;labelBorderColor=none;labelPosition=center;verticalLabelPosition=top;align=center;verticalAlign=bottom;" parent="Gr0Zq-AI6Quabplr0KPa-98" vertex="1">
            <mxGeometry x="303.7432580169331" y="108.42428523579852" width="145.52567237163814" height="132.2186495176849" as="geometry" />
          </mxCell>
        </object>
        <mxCell id="Gr0Zq-AI6Quabplr0KPa-105" value="Ethernet Switch" style="image;html=1;image=img/lib/clip_art/networking/Switch_128x128.png;strokeColor=none;strokeWidth=2;fillColor=#EDF5FF;fontSize=12;labelBackgroundColor=#EDF5FF;fontStyle=1;fontColor=#0A3DA3;" parent="Gr0Zq-AI6Quabplr0KPa-98" vertex="1">
          <mxGeometry x="300.1466992665037" y="360.2958199356913" width="145.52567237163814" height="69.41479099678457" as="geometry" />
        </mxCell>
        <object label="Alice" placeholders="1" id="Gr0Zq-AI6Quabplr0KPa-102">
          <mxCell style="image;html=1;image=img/lib/clip_art/computers/Monitor_Tower_128x128.png;fontFamily=Helvetica;fontSize=12;fontColor=#0A3DA3;align=center;strokeWidth=2;fillColor=#EDF5FF;fontStyle=1;verticalAlign=bottom;strokeColor=none;labelBackgroundColor=#EDF5FF;labelBorderColor=none;labelPosition=center;verticalLabelPosition=top;" parent="Gr0Zq-AI6Quabplr0KPa-98" vertex="1">
            <mxGeometry x="502.9978947368421" y="138.00046874999998" width="173.1983805668016" height="105.74479166666667" as="geometry" />
          </mxCell>
        </object>
        <mxCell id="Gr0Zq-AI6Quabplr0KPa-99" value="" style="edgeStyle=orthogonalEdgeStyle;rounded=0;html=1;endArrow=none;endFill=0;strokeColor=#66B2FF;strokeWidth=2;fontSize=12;fontColor=#0A3DA3;startSize=8;endSize=8;curved=1;" parent="Gr0Zq-AI6Quabplr0KPa-98" source="Gr0Zq-AI6Quabplr0KPa-105" target="Gr0Zq-AI6Quabplr0KPa-102" edge="1">
          <mxGeometry relative="1" as="geometry" />
        </mxCell>
        <mxCell id="3lNWAQXR-T9nAfW_impY-21" value="" style="shape=mxgraph.arrows2.wedgeArrowDashed2;html=1;bendable=0;startWidth=71;stepSize=15;rounded=0;sketch=1;hachureGap=4;jiggle=2;curveFitting=1;fontFamily=Architects Daughter;fontSource=https%3A%2F%2Ffonts.googleapis.com%2Fcss%3Ffamily%3DArchitects%2BDaughter;curved=1;" edge="1" parent="Gr0Zq-AI6Quabplr0KPa-98">
          <mxGeometry width="100" height="100" relative="1" as="geometry">
            <mxPoint x="111.99537190082646" y="275.85046875" as="sourcePoint" />
            <mxPoint x="234.97057851239668" y="141.9963020833333" as="targetPoint" />
            <Array as="points">
              <mxPoint x="165.00000000000006" y="235" />
            </Array>
          </mxGeometry>
        </mxCell>
        <object label="Bob" placeholders="1" id="Gr0Zq-AI6Quabplr0KPa-103">
          <mxCell style="image;html=1;image=img/lib/clip_art/computers/Laptop_128x128.png;fontFamily=Helvetica;fontSize=12;fontColor=#0A3DA3;align=center;strokeWidth=2;fillColor=#EDF5FF;fontStyle=1;verticalAlign=bottom;strokeColor=none;labelBackgroundColor=#EDF5FF;labelBorderColor=none;labelPosition=center;verticalLabelPosition=top;" parent="Gr0Zq-AI6Quabplr0KPa-98" vertex="1">
            <mxGeometry x="89.00272727272727" y="322.6229166666667" width="98.3801652892562" height="107.08333333333333" as="geometry" />
          </mxCell>
        </object>
      </root>
    </mxGraphModel>
  </diagram>
</mxfile>
